<mxfile host="app.diagrams.net" modified="2023-05-16T07:56:33.223Z" agent="Mozilla/5.0 (Macintosh; Intel Mac OS X 10_15_7) AppleWebKit/537.36 (KHTML, like Gecko) Chrome/113.0.0.0 Safari/537.36" etag="lwnPaGY7E7KS4_oyZDGs" version="21.2.9" type="github">
  <diagram id="C5RBs43oDa-KdzZeNtuy" name="Page-1">
    <mxGraphModel dx="1060" dy="569" grid="1" gridSize="10" guides="1" tooltips="1" connect="1" arrows="1" fold="1" page="1" pageScale="1" pageWidth="827" pageHeight="1169" math="0" shadow="0">
      <root>
        <mxCell id="WIyWlLk6GJQsqaUBKTNV-0" />
        <mxCell id="WIyWlLk6GJQsqaUBKTNV-1" parent="WIyWlLk6GJQsqaUBKTNV-0" />
        <mxCell id="ih9xHQ6weiaJDXyj7Nn--2" value="" style="edgeStyle=orthogonalEdgeStyle;rounded=0;orthogonalLoop=1;jettySize=auto;html=1;" edge="1" parent="WIyWlLk6GJQsqaUBKTNV-1" source="ih9xHQ6weiaJDXyj7Nn--0" target="ih9xHQ6weiaJDXyj7Nn--1">
          <mxGeometry relative="1" as="geometry" />
        </mxCell>
        <mxCell id="ih9xHQ6weiaJDXyj7Nn--0" value="开始" style="rounded=1;whiteSpace=wrap;html=1;" vertex="1" parent="WIyWlLk6GJQsqaUBKTNV-1">
          <mxGeometry x="80" y="60" width="120" height="30" as="geometry" />
        </mxCell>
        <mxCell id="ih9xHQ6weiaJDXyj7Nn--4" value="" style="edgeStyle=orthogonalEdgeStyle;rounded=0;orthogonalLoop=1;jettySize=auto;html=1;" edge="1" parent="WIyWlLk6GJQsqaUBKTNV-1" source="ih9xHQ6weiaJDXyj7Nn--1" target="ih9xHQ6weiaJDXyj7Nn--3">
          <mxGeometry relative="1" as="geometry" />
        </mxCell>
        <mxCell id="ih9xHQ6weiaJDXyj7Nn--1" value="打开网页" style="rounded=1;whiteSpace=wrap;html=1;" vertex="1" parent="WIyWlLk6GJQsqaUBKTNV-1">
          <mxGeometry x="80" y="130" width="120" height="30" as="geometry" />
        </mxCell>
        <mxCell id="ih9xHQ6weiaJDXyj7Nn--6" value="" style="edgeStyle=orthogonalEdgeStyle;rounded=0;orthogonalLoop=1;jettySize=auto;html=1;" edge="1" parent="WIyWlLk6GJQsqaUBKTNV-1" source="ih9xHQ6weiaJDXyj7Nn--3" target="ih9xHQ6weiaJDXyj7Nn--5">
          <mxGeometry relative="1" as="geometry" />
        </mxCell>
        <mxCell id="ih9xHQ6weiaJDXyj7Nn--3" value="登录" style="rounded=1;whiteSpace=wrap;html=1;" vertex="1" parent="WIyWlLk6GJQsqaUBKTNV-1">
          <mxGeometry x="80" y="200" width="120" height="30" as="geometry" />
        </mxCell>
        <mxCell id="ih9xHQ6weiaJDXyj7Nn--8" value="" style="edgeStyle=orthogonalEdgeStyle;rounded=0;orthogonalLoop=1;jettySize=auto;html=1;" edge="1" parent="WIyWlLk6GJQsqaUBKTNV-1" source="ih9xHQ6weiaJDXyj7Nn--5" target="ih9xHQ6weiaJDXyj7Nn--7">
          <mxGeometry relative="1" as="geometry" />
        </mxCell>
        <mxCell id="ih9xHQ6weiaJDXyj7Nn--5" value="点击工单申请" style="rounded=1;whiteSpace=wrap;html=1;" vertex="1" parent="WIyWlLk6GJQsqaUBKTNV-1">
          <mxGeometry x="80" y="270" width="120" height="30" as="geometry" />
        </mxCell>
        <mxCell id="ih9xHQ6weiaJDXyj7Nn--10" value="" style="edgeStyle=orthogonalEdgeStyle;rounded=0;orthogonalLoop=1;jettySize=auto;html=1;" edge="1" parent="WIyWlLk6GJQsqaUBKTNV-1" source="ih9xHQ6weiaJDXyj7Nn--7" target="ih9xHQ6weiaJDXyj7Nn--9">
          <mxGeometry relative="1" as="geometry" />
        </mxCell>
        <mxCell id="ih9xHQ6weiaJDXyj7Nn--7" value="点击创建工作申请" style="rounded=1;whiteSpace=wrap;html=1;" vertex="1" parent="WIyWlLk6GJQsqaUBKTNV-1">
          <mxGeometry x="80" y="340" width="120" height="30" as="geometry" />
        </mxCell>
        <mxCell id="ih9xHQ6weiaJDXyj7Nn--12" value="" style="edgeStyle=orthogonalEdgeStyle;rounded=0;orthogonalLoop=1;jettySize=auto;html=1;" edge="1" parent="WIyWlLk6GJQsqaUBKTNV-1" source="ih9xHQ6weiaJDXyj7Nn--9" target="ih9xHQ6weiaJDXyj7Nn--11">
          <mxGeometry relative="1" as="geometry" />
        </mxCell>
        <mxCell id="ih9xHQ6weiaJDXyj7Nn--9" value="点击新建记录" style="rounded=1;whiteSpace=wrap;html=1;" vertex="1" parent="WIyWlLk6GJQsqaUBKTNV-1">
          <mxGeometry x="80" y="410" width="120" height="30" as="geometry" />
        </mxCell>
        <mxCell id="ih9xHQ6weiaJDXyj7Nn--14" value="" style="edgeStyle=orthogonalEdgeStyle;rounded=0;orthogonalLoop=1;jettySize=auto;html=1;" edge="1" parent="WIyWlLk6GJQsqaUBKTNV-1" source="ih9xHQ6weiaJDXyj7Nn--11" target="ih9xHQ6weiaJDXyj7Nn--13">
          <mxGeometry relative="1" as="geometry" />
        </mxCell>
        <mxCell id="ih9xHQ6weiaJDXyj7Nn--11" value="输入必选项" style="rounded=1;whiteSpace=wrap;html=1;" vertex="1" parent="WIyWlLk6GJQsqaUBKTNV-1">
          <mxGeometry x="80" y="470" width="120" height="30" as="geometry" />
        </mxCell>
        <mxCell id="ih9xHQ6weiaJDXyj7Nn--16" value="" style="edgeStyle=orthogonalEdgeStyle;rounded=0;orthogonalLoop=1;jettySize=auto;html=1;" edge="1" parent="WIyWlLk6GJQsqaUBKTNV-1" source="ih9xHQ6weiaJDXyj7Nn--13" target="ih9xHQ6weiaJDXyj7Nn--15">
          <mxGeometry relative="1" as="geometry" />
        </mxCell>
        <mxCell id="ih9xHQ6weiaJDXyj7Nn--13" value="截图保存" style="rounded=1;whiteSpace=wrap;html=1;" vertex="1" parent="WIyWlLk6GJQsqaUBKTNV-1">
          <mxGeometry x="80" y="530" width="120" height="30" as="geometry" />
        </mxCell>
        <mxCell id="ih9xHQ6weiaJDXyj7Nn--15" value="点击保存记录" style="rounded=1;whiteSpace=wrap;html=1;" vertex="1" parent="WIyWlLk6GJQsqaUBKTNV-1">
          <mxGeometry x="80" y="585" width="120" height="30" as="geometry" />
        </mxCell>
      </root>
    </mxGraphModel>
  </diagram>
</mxfile>
